<svg width="82.93" height="78.9" xmlns="http://www.w3.org/2000/svg">
 <g id="Layer_1">
  <title>Layer 1</title>
  <g id="svg_1">
   <title>logo-picto</title>
   <g id="svg_2">
    <path id="svg_4" d="m13.17979,38.12974l-12.34,-12.34a1.71,1.71 0 0 1 -0.59,-1.18a1.66,1.66 0 0 1 0.66,-1.19l1.52,-1.32a2,2 0 0 1 1.12,-0.53a1.71,1.71 0 0 1 1.19,0.6l11.68,11.61a11.39,11.39 0 0 1 1.71,2.11a4.24,4.24 0 0 1 0.6,2.24a4.11,4.11 0 0 1 -0.6,2.18a11.39,11.39 0 0 1 -1.71,2.11l-11.68,11.68a1.67,1.67 0 0 1 -1.19,0.53a1.65,1.65 0 0 1 -1.12,-0.46l-1.52,-1.39a1.64,1.64 0 0 1 -0.66,-1.19a1.39,1.39 0 0 1 0.59,-1.12l12.34,-12.34z" fill="#1ee494"/>
    <rect id="svg_5" x="33.49979" width="37.68" height="70.69" rx="2.02" ry="2.02" fill="#1ee494" y="0.24974"/>
   </g>
  </g>
  <g stroke="null">
   <g stroke="null">
    <path stroke="null" fill="#5382A1" d="m60.14164,68.26472c0,0 -1.69564,0.98608 1.20673,1.31975c3.51614,0.40113 5.3132,0.3436 9.18802,-0.38977c0,0 1.01873,0.63877 2.44145,1.19202c-8.68631,3.72281 -19.65883,-0.21563 -12.8362,-2.122"/>
    <path stroke="null" fill="#5382A1" d="m59.08022,63.4067c0,0 -1.90183,1.40777 1.0027,1.7082c3.75605,0.38749 6.72229,0.41919 11.85503,-0.56916c0,0 0.70993,0.71973 1.82624,1.11333c-10.50227,3.071 -22.1999,0.24218 -14.68397,-2.25237"/>
    <path stroke="null" fill="#E76F00" d="m68.02833,55.16589c2.1403,2.46417 -0.56234,4.68161 -0.56234,4.68161c0,0 5.43459,-2.8055 2.93873,-6.31865c-2.33106,-3.27623 -4.11867,-4.90406 5.55874,-10.51662c0,0 -15.19034,3.79385 -7.93512,12.15366"/>
    <path stroke="null" fill="#5382A1" d="m79.51667,71.858c0,0 1.25481,1.03391 -1.38194,1.83378c-5.01385,1.51888 -20.86819,1.97753 -25.27246,0.06052c-1.58322,-0.68876 1.38577,-1.64458 2.3197,-1.84514c0.974,-0.21121 1.5306,-0.17186 1.5306,-0.17186c-1.7607,-1.24034 -11.38047,2.43547 -4.88636,3.48816c17.71036,2.87212 32.2843,-1.29332 27.69047,-3.36545"/>
    <path stroke="null" fill="#5382A1" d="m60.95705,58.37323c0,0 -8.06453,1.91546 -2.85585,2.61103c2.19926,0.29445 6.58344,0.22783 10.66719,-0.11433c3.33747,-0.28153 6.68869,-0.88011 6.68869,-0.88011c0,0 -1.17683,0.50398 -2.02824,1.08534c-8.18939,2.15382 -24.00976,1.15184 -19.45528,-1.05126c3.85173,-1.86188 6.98349,-1.65067 6.98349,-1.65067"/>
    <path stroke="null" fill="#5382A1" d="m75.42383,66.45964c8.32489,-4.32593 4.47579,-8.48312 1.78917,-7.92304c-0.6585,0.13706 -0.95211,0.25582 -0.95211,0.25582c0,0 0.24446,-0.38295 0.71136,-0.54871c5.315,-1.86858 9.40258,5.51114 -1.71573,8.43396c0,0.00012 0.12881,-0.11505 0.16732,-0.21803"/>
    <path stroke="null" fill="#E76F00" d="m70.40472,33.94943c0,0 4.61045,4.61201 -4.37282,11.70398c-7.20367,5.68898 -1.64266,8.93268 -0.00299,12.63874c-4.2049,-3.79385 -7.29074,-7.13359 -5.22052,-10.2419c3.03859,-4.56274 11.45653,-6.77492 9.59632,-14.10081"/>
    <path stroke="null" fill="#5382A1" d="m61.7751,78.18192c7.99086,0.51151 20.26172,-0.2838 20.55234,-4.06485c0,0 -0.55864,1.43337 -6.60401,2.57169c-6.82036,1.28351 -15.23232,1.13366 -20.22153,0.31107c0.00012,-0.00012 1.02136,0.84531 6.27321,1.18209"/>
   </g>
  </g>
 </g>

</svg>